<svg width="717" height="904" viewBox="0 0 717 904" fill="none" xmlns="http://www.w3.org/2000/svg">
<path d="M6.8 23.15H2.75V49H6.8V34.65C6.8 29.8 10.3 26.8 14.3 26.8C15.1 26.8 15.5 26.85 16.1 27.05H16.25V23.15C15.75 22.95 15.35 22.85 14.6 22.85C11.15 22.85 8.45 24.95 6.9 27.45H6.8V23.15ZM49.9621 49.7C55.8121 49.7 59.8621 46.55 61.0621 41H57.1121C56.2121 44.5 53.7121 46.3 49.9621 46.3C44.7621 46.3 41.9121 42.3 41.6121 37.05H61.6121C61.6121 28.5 57.4621 22.5 49.7121 22.5C42.3621 22.5 37.4621 28.6 37.4621 36.1C37.4621 43.6 42.0621 49.7 49.9621 49.7ZM49.7121 25.7C54.3621 25.7 57.0121 28.85 57.2621 34H41.7121C42.3121 29.3 44.9121 25.7 49.7121 25.7ZM83.434 26.45H87.184V44.15C87.184 47.8 89.584 49.15 92.884 49.15C94.084 49.15 95.184 49 96.134 48.8V45.3H95.984C95.534 45.45 94.634 45.65 93.834 45.65C92.184 45.65 91.234 45.05 91.234 43.25V26.45H96.234V23.15H91.234V15H87.184V23.15H83.434V26.45ZM124.466 23.15H120.416V49H124.466V34.65C124.466 29.8 127.966 26.8 131.966 26.8C132.766 26.8 133.166 26.85 133.766 27.05H133.916V23.15C133.416 22.95 133.016 22.85 132.266 22.85C128.816 22.85 126.116 24.95 124.566 27.45H124.466V23.15ZM157.555 49H161.605V23.15H157.555V49ZM157.555 18.25H161.605V13.25H157.555V18.25ZM199.425 49.75C206.425 49.75 210.575 44.45 210.575 36.15C210.575 27.55 206.125 22.55 199.575 22.55C195.825 22.55 193.225 24.2 191.275 26.85H191.175V13.25H187.125V49H191.175V45.6H191.275C193.375 48.5 195.925 49.75 199.425 49.75ZM199.125 46.35C193.625 46.35 190.925 42 190.925 36.2C190.925 30.6 193.525 26 199.175 26C204.075 26 206.425 30.4 206.425 36.2C206.425 42.05 204.075 46.35 199.125 46.35ZM255.115 49V23.15H251.065V39.05C251.065 43.15 248.415 46.25 244.315 46.25C240.665 46.25 238.515 44.3 238.515 40.95V23.15H234.465V41.05C234.465 46.4 237.865 49.6 243.165 49.6C246.915 49.6 249.115 47.95 250.965 45.45H251.065V49H255.115ZM278.942 26.45H282.692V44.15C282.692 47.8 285.092 49.15 288.392 49.15C289.592 49.15 290.692 49 291.642 48.8V45.3H291.492C291.042 45.45 290.142 45.65 289.342 45.65C287.692 45.65 286.742 45.05 286.742 43.25V26.45H291.742V23.15H286.742V15H282.692V23.15H278.942V26.45ZM315.924 49H319.974V23.15H315.924V49ZM315.924 18.25H319.974V13.25H315.924V18.25ZM351.894 49H356.394L365.694 23.15H361.494L356.044 39.55C355.294 41.8 354.344 45 354.344 45H354.244C354.244 45 353.294 41.85 352.544 39.55L347.194 23.15H342.844L351.894 49ZM399.103 49.7C404.953 49.7 409.003 46.55 410.203 41H406.253C405.353 44.5 402.853 46.3 399.103 46.3C393.903 46.3 391.053 42.3 390.753 37.05H410.753C410.753 28.5 406.603 22.5 398.853 22.5C391.503 22.5 386.603 28.6 386.603 36.1C386.603 43.6 391.203 49.7 399.103 49.7ZM398.853 25.7C403.503 25.7 406.153 28.85 406.403 34H390.853C391.453 29.3 394.053 25.7 398.853 25.7ZM460.772 56.35C464.072 56.35 466.722 55.5 466.722 50.7V23.15H462.672V50.5C462.672 52.25 461.772 53 460.022 53C459.572 53 459.122 52.95 458.622 52.85H458.522V56.15C459.172 56.25 459.872 56.35 460.772 56.35ZM462.672 18.25H466.722V13.25H462.672V18.25ZM512.742 49V23.15H508.692V39.05C508.692 43.15 506.042 46.25 501.942 46.25C498.292 46.25 496.142 44.3 496.142 40.95V23.15H492.092V41.05C492.092 46.4 495.492 49.6 500.792 49.6C504.542 49.6 506.742 47.95 508.592 45.45H508.692V49H512.742ZM548.019 49.75C553.969 49.75 558.219 47.1 558.219 41.9C558.219 35.95 553.869 34.8 548.669 33.75C544.219 32.85 541.719 32.3 541.719 29.5C541.719 27.45 543.219 25.8 546.919 25.8C550.769 25.8 552.619 27.3 553.019 30.7H557.169C556.569 25.65 553.419 22.6 547.019 22.6C541.019 22.6 537.719 25.4 537.719 29.7C537.719 35.35 542.269 36.4 547.369 37.45C552.119 38.45 554.119 39.2 554.119 42.1C554.119 44.5 552.369 46.35 548.119 46.35C544.269 46.35 541.269 45.1 540.719 40.6H536.569C536.969 46.4 540.919 49.75 548.019 49.75ZM579.957 26.45H583.707V44.15C583.707 47.8 586.107 49.15 589.407 49.15C590.607 49.15 591.707 49 592.657 48.8V45.3H592.507C592.057 45.45 591.157 45.65 590.357 45.65C588.707 45.65 587.757 45.05 587.757 43.25V26.45H592.757V23.15H587.757V15H583.707V23.15H579.957V26.45ZM616.939 49H620.989V23.15H616.939V49ZM616.939 18.25H620.989V13.25H616.939V18.25ZM657.56 49.7C664.01 49.7 668.06 46.1 668.61 39.9H664.61C664.26 43.9 661.76 46.3 657.56 46.3C652.06 46.3 649.21 41.8 649.21 36.1C649.21 30.4 652.06 25.85 657.56 25.85C661.46 25.85 663.91 28 664.51 31.5H668.61C667.71 26 663.66 22.5 657.56 22.5C649.86 22.5 645.06 28.6 645.06 36.1C645.06 43.6 649.86 49.7 657.56 49.7ZM703.488 49.7C709.338 49.7 713.388 46.55 714.588 41H710.638C709.738 44.5 707.238 46.3 703.488 46.3C698.288 46.3 695.438 42.3 695.138 37.05H715.138C715.138 28.5 710.988 22.5 703.238 22.5C695.888 22.5 690.988 28.6 690.988 36.1C690.988 43.6 695.588 49.7 703.488 49.7ZM703.238 25.7C707.888 25.7 710.538 28.85 710.788 34H695.238C695.838 29.3 698.438 25.7 703.238 25.7Z" fill="black"/>
<path d="M6.8 107.15H2.75V133H6.8V118.65C6.8 113.8 10.3 110.8 14.3 110.8C15.1 110.8 15.5 110.85 16.1 111.05H16.25V107.15C15.75 106.95 15.35 106.85 14.6 106.85C11.15 106.85 8.45 108.95 6.9 111.45H6.8V107.15ZM49.9621 133.7C55.8121 133.7 59.8621 130.55 61.0621 125H57.1121C56.2121 128.5 53.7121 130.3 49.9621 130.3C44.7621 130.3 41.9121 126.3 41.6121 121.05H61.6121C61.6121 112.5 57.4621 106.5 49.7121 106.5C42.3621 106.5 37.4621 112.6 37.4621 120.1C37.4621 127.6 42.0621 133.7 49.9621 133.7ZM49.7121 109.7C54.3621 109.7 57.0121 112.85 57.2621 118H41.7121C42.3121 113.3 44.9121 109.7 49.7121 109.7ZM83.434 110.45H87.184V128.15C87.184 131.8 89.584 133.15 92.884 133.15C94.084 133.15 95.184 133 96.134 132.8V129.3H95.984C95.534 129.45 94.634 129.65 93.834 129.65C92.184 129.65 91.234 129.05 91.234 127.25V110.45H96.234V107.15H91.234V99H87.184V107.15H83.434V110.45ZM124.466 107.15H120.416V133H124.466V118.65C124.466 113.8 127.966 110.8 131.966 110.8C132.766 110.8 133.166 110.85 133.766 111.05H133.916V107.15C133.416 106.95 133.016 106.85 132.266 106.85C128.816 106.85 126.116 108.95 124.566 111.45H124.466V107.15ZM157.555 133H161.605V107.15H157.555V133ZM157.555 102.25H161.605V97.25H157.555V102.25ZM199.425 133.75C206.425 133.75 210.575 128.45 210.575 120.15C210.575 111.55 206.125 106.55 199.575 106.55C195.825 106.55 193.225 108.2 191.275 110.85H191.175V97.25H187.125V133H191.175V129.6H191.275C193.375 132.5 195.925 133.75 199.425 133.75ZM199.125 130.35C193.625 130.35 190.925 126 190.925 120.2C190.925 114.6 193.525 110 199.175 110C204.075 110 206.425 114.4 206.425 120.2C206.425 126.05 204.075 130.35 199.125 130.35ZM255.115 133V107.15H251.065V123.05C251.065 127.15 248.415 130.25 244.315 130.25C240.665 130.25 238.515 128.3 238.515 124.95V107.15H234.465V125.05C234.465 130.4 237.865 133.6 243.165 133.6C246.915 133.6 249.115 131.95 250.965 129.45H251.065V133H255.115ZM278.942 110.45H282.692V128.15C282.692 131.8 285.092 133.15 288.392 133.15C289.592 133.15 290.692 133 291.642 132.8V129.3H291.492C291.042 129.45 290.142 129.65 289.342 129.65C287.692 129.65 286.742 129.05 286.742 127.25V110.45H291.742V107.15H286.742V99H282.692V107.15H278.942V110.45ZM315.924 133H319.974V107.15H315.924V133ZM315.924 102.25H319.974V97.25H315.924V102.25ZM351.894 133H356.394L365.694 107.15H361.494L356.044 123.55C355.294 125.8 354.344 129 354.344 129H354.244C354.244 129 353.294 125.85 352.544 123.55L347.194 107.15H342.844L351.894 133ZM399.103 133.7C404.953 133.7 409.003 130.55 410.203 125H406.253C405.353 128.5 402.853 130.3 399.103 130.3C393.903 130.3 391.053 126.3 390.753 121.05H410.753C410.753 112.5 406.603 106.5 398.853 106.5C391.503 106.5 386.603 112.6 386.603 120.1C386.603 127.6 391.203 133.7 399.103 133.7ZM398.853 109.7C403.503 109.7 406.153 112.85 406.403 118H390.853C391.453 113.3 394.053 109.7 398.853 109.7ZM460.772 140.35C464.072 140.35 466.722 139.5 466.722 134.7V107.15H462.672V134.5C462.672 136.25 461.772 137 460.022 137C459.572 137 459.122 136.95 458.622 136.85H458.522V140.15C459.172 140.25 459.872 140.35 460.772 140.35ZM462.672 102.25H466.722V97.25H462.672V102.25ZM512.742 133V107.15H508.692V123.05C508.692 127.15 506.042 130.25 501.942 130.25C498.292 130.25 496.142 128.3 496.142 124.95V107.15H492.092V125.05C492.092 130.4 495.492 133.6 500.792 133.6C504.542 133.6 506.742 131.95 508.592 129.45H508.692V133H512.742ZM548.019 133.75C553.969 133.75 558.219 131.1 558.219 125.9C558.219 119.95 553.869 118.8 548.669 117.75C544.219 116.85 541.719 116.3 541.719 113.5C541.719 111.45 543.219 109.8 546.919 109.8C550.769 109.8 552.619 111.3 553.019 114.7H557.169C556.569 109.65 553.419 106.6 547.019 106.6C541.019 106.6 537.719 109.4 537.719 113.7C537.719 119.35 542.269 120.4 547.369 121.45C552.119 122.45 554.119 123.2 554.119 126.1C554.119 128.5 552.369 130.35 548.119 130.35C544.269 130.35 541.269 129.1 540.719 124.6H536.569C536.969 130.4 540.919 133.75 548.019 133.75ZM579.957 110.45H583.707V128.15C583.707 131.8 586.107 133.15 589.407 133.15C590.607 133.15 591.707 133 592.657 132.8V129.3H592.507C592.057 129.45 591.157 129.65 590.357 129.65C588.707 129.65 587.757 129.05 587.757 127.25V110.45H592.757V107.15H587.757V99H583.707V107.15H579.957V110.45ZM616.939 133H620.989V107.15H616.939V133ZM616.939 102.25H620.989V97.25H616.939V102.25ZM657.56 133.7C664.01 133.7 668.06 130.1 668.61 123.9H664.61C664.26 127.9 661.76 130.3 657.56 130.3C652.06 130.3 649.21 125.8 649.21 120.1C649.21 114.4 652.06 109.85 657.56 109.85C661.46 109.85 663.91 112 664.51 115.5H668.61C667.71 110 663.66 106.5 657.56 106.5C649.86 106.5 645.06 112.6 645.06 120.1C645.06 127.6 649.86 133.7 657.56 133.7ZM703.488 133.7C709.338 133.7 713.388 130.55 714.588 125H710.638C709.738 128.5 707.238 130.3 703.488 130.3C698.288 130.3 695.438 126.3 695.138 121.05H715.138C715.138 112.5 710.988 106.5 703.238 106.5C695.888 106.5 690.988 112.6 690.988 120.1C690.988 127.6 695.588 133.7 703.488 133.7ZM703.238 109.7C707.888 109.7 710.538 112.85 710.788 118H695.238C695.838 113.3 698.438 109.7 703.238 109.7Z" fill="black"/>
<path d="M6.8 191.15H2.75V217H6.8V202.65C6.8 197.8 10.3 194.8 14.3 194.8C15.1 194.8 15.5 194.85 16.1 195.05H16.25V191.15C15.75 190.95 15.35 190.85 14.6 190.85C11.15 190.85 8.45 192.95 6.9 195.45H6.8V191.15ZM49.9621 217.7C55.8121 217.7 59.8621 214.55 61.0621 209H57.1121C56.2121 212.5 53.7121 214.3 49.9621 214.3C44.7621 214.3 41.9121 210.3 41.6121 205.05H61.6121C61.6121 196.5 57.4621 190.5 49.7121 190.5C42.3621 190.5 37.4621 196.6 37.4621 204.1C37.4621 211.6 42.0621 217.7 49.9621 217.7ZM49.7121 193.7C54.3621 193.7 57.0121 196.85 57.2621 202H41.7121C42.3121 197.3 44.9121 193.7 49.7121 193.7ZM83.434 194.45H87.184V212.15C87.184 215.8 89.584 217.15 92.884 217.15C94.084 217.15 95.184 217 96.134 216.8V213.3H95.984C95.534 213.45 94.634 213.65 93.834 213.65C92.184 213.65 91.234 213.05 91.234 211.25V194.45H96.234V191.15H91.234V183H87.184V191.15H83.434V194.45ZM124.466 191.15H120.416V217H124.466V202.65C124.466 197.8 127.966 194.8 131.966 194.8C132.766 194.8 133.166 194.85 133.766 195.05H133.916V191.15C133.416 190.95 133.016 190.85 132.266 190.85C128.816 190.85 126.116 192.95 124.566 195.45H124.466V191.15ZM157.555 217H161.605V191.15H157.555V217ZM157.555 186.25H161.605V181.25H157.555V186.25ZM199.425 217.75C206.425 217.75 210.575 212.45 210.575 204.15C210.575 195.55 206.125 190.55 199.575 190.55C195.825 190.55 193.225 192.2 191.275 194.85H191.175V181.25H187.125V217H191.175V213.6H191.275C193.375 216.5 195.925 217.75 199.425 217.75ZM199.125 214.35C193.625 214.35 190.925 210 190.925 204.2C190.925 198.6 193.525 194 199.175 194C204.075 194 206.425 198.4 206.425 204.2C206.425 210.05 204.075 214.35 199.125 214.35ZM255.115 217V191.15H251.065V207.05C251.065 211.15 248.415 214.25 244.315 214.25C240.665 214.25 238.515 212.3 238.515 208.95V191.15H234.465V209.05C234.465 214.4 237.865 217.6 243.165 217.6C246.915 217.6 249.115 215.95 250.965 213.45H251.065V217H255.115ZM278.942 194.45H282.692V212.15C282.692 215.8 285.092 217.15 288.392 217.15C289.592 217.15 290.692 217 291.642 216.8V213.3H291.492C291.042 213.45 290.142 213.65 289.342 213.65C287.692 213.65 286.742 213.05 286.742 211.25V194.45H291.742V191.15H286.742V183H282.692V191.15H278.942V194.45ZM315.924 217H319.974V191.15H315.924V217ZM315.924 186.25H319.974V181.25H315.924V186.25ZM351.894 217H356.394L365.694 191.15H361.494L356.044 207.55C355.294 209.8 354.344 213 354.344 213H354.244C354.244 213 353.294 209.85 352.544 207.55L347.194 191.15H342.844L351.894 217ZM399.103 217.7C404.953 217.7 409.003 214.55 410.203 209H406.253C405.353 212.5 402.853 214.3 399.103 214.3C393.903 214.3 391.053 210.3 390.753 205.05H410.753C410.753 196.5 406.603 190.5 398.853 190.5C391.503 190.5 386.603 196.6 386.603 204.1C386.603 211.6 391.203 217.7 399.103 217.7ZM398.853 193.7C403.503 193.7 406.153 196.85 406.403 202H390.853C391.453 197.3 394.053 193.7 398.853 193.7ZM460.772 224.35C464.072 224.35 466.722 223.5 466.722 218.7V191.15H462.672V218.5C462.672 220.25 461.772 221 460.022 221C459.572 221 459.122 220.95 458.622 220.85H458.522V224.15C459.172 224.25 459.872 224.35 460.772 224.35ZM462.672 186.25H466.722V181.25H462.672V186.25ZM512.742 217V191.15H508.692V207.05C508.692 211.15 506.042 214.25 501.942 214.25C498.292 214.25 496.142 212.3 496.142 208.95V191.15H492.092V209.05C492.092 214.4 495.492 217.6 500.792 217.6C504.542 217.6 506.742 215.95 508.592 213.45H508.692V217H512.742ZM548.019 217.75C553.969 217.75 558.219 215.1 558.219 209.9C558.219 203.95 553.869 202.8 548.669 201.75C544.219 200.85 541.719 200.3 541.719 197.5C541.719 195.45 543.219 193.8 546.919 193.8C550.769 193.8 552.619 195.3 553.019 198.7H557.169C556.569 193.65 553.419 190.6 547.019 190.6C541.019 190.6 537.719 193.4 537.719 197.7C537.719 203.35 542.269 204.4 547.369 205.45C552.119 206.45 554.119 207.2 554.119 210.1C554.119 212.5 552.369 214.35 548.119 214.35C544.269 214.35 541.269 213.1 540.719 208.6H536.569C536.969 214.4 540.919 217.75 548.019 217.75ZM579.957 194.45H583.707V212.15C583.707 215.8 586.107 217.15 589.407 217.15C590.607 217.15 591.707 217 592.657 216.8V213.3H592.507C592.057 213.45 591.157 213.65 590.357 213.65C588.707 213.65 587.757 213.05 587.757 211.25V194.45H592.757V191.15H587.757V183H583.707V191.15H579.957V194.45ZM616.939 217H620.989V191.15H616.939V217ZM616.939 186.25H620.989V181.25H616.939V186.25ZM657.56 217.7C664.01 217.7 668.06 214.1 668.61 207.9H664.61C664.26 211.9 661.76 214.3 657.56 214.3C652.06 214.3 649.21 209.8 649.21 204.1C649.21 198.4 652.06 193.85 657.56 193.85C661.46 193.85 663.91 196 664.51 199.5H668.61C667.71 194 663.66 190.5 657.56 190.5C649.86 190.5 645.06 196.6 645.06 204.1C645.06 211.6 649.86 217.7 657.56 217.7ZM703.488 217.7C709.338 217.7 713.388 214.55 714.588 209H710.638C709.738 212.5 707.238 214.3 703.488 214.3C698.288 214.3 695.438 210.3 695.138 205.05H715.138C715.138 196.5 710.988 190.5 703.238 190.5C695.888 190.5 690.988 196.6 690.988 204.1C690.988 211.6 695.588 217.7 703.488 217.7ZM703.238 193.7C707.888 193.7 710.538 196.85 710.788 202H695.238C695.838 197.3 698.438 193.7 703.238 193.7Z" fill="black"/>
<path d="M6.8 275.15H2.75V301H6.8V286.65C6.8 281.8 10.3 278.8 14.3 278.8C15.1 278.8 15.5 278.85 16.1 279.05H16.25V275.15C15.75 274.95 15.35 274.85 14.6 274.85C11.15 274.85 8.45 276.95 6.9 279.45H6.8V275.15ZM49.9621 301.7C55.8121 301.7 59.8621 298.55 61.0621 293H57.1121C56.2121 296.5 53.7121 298.3 49.9621 298.3C44.7621 298.3 41.9121 294.3 41.6121 289.05H61.6121C61.6121 280.5 57.4621 274.5 49.7121 274.5C42.3621 274.5 37.4621 280.6 37.4621 288.1C37.4621 295.6 42.0621 301.7 49.9621 301.7ZM49.7121 277.7C54.3621 277.7 57.0121 280.85 57.2621 286H41.7121C42.3121 281.3 44.9121 277.7 49.7121 277.7ZM83.434 278.45H87.184V296.15C87.184 299.8 89.584 301.15 92.884 301.15C94.084 301.15 95.184 301 96.134 300.8V297.3H95.984C95.534 297.45 94.634 297.65 93.834 297.65C92.184 297.65 91.234 297.05 91.234 295.25V278.45H96.234V275.15H91.234V267H87.184V275.15H83.434V278.45ZM124.466 275.15H120.416V301H124.466V286.65C124.466 281.8 127.966 278.8 131.966 278.8C132.766 278.8 133.166 278.85 133.766 279.05H133.916V275.15C133.416 274.95 133.016 274.85 132.266 274.85C128.816 274.85 126.116 276.95 124.566 279.45H124.466V275.15ZM157.555 301H161.605V275.15H157.555V301ZM157.555 270.25H161.605V265.25H157.555V270.25ZM199.425 301.75C206.425 301.75 210.575 296.45 210.575 288.15C210.575 279.55 206.125 274.55 199.575 274.55C195.825 274.55 193.225 276.2 191.275 278.85H191.175V265.25H187.125V301H191.175V297.6H191.275C193.375 300.5 195.925 301.75 199.425 301.75ZM199.125 298.35C193.625 298.35 190.925 294 190.925 288.2C190.925 282.6 193.525 278 199.175 278C204.075 278 206.425 282.4 206.425 288.2C206.425 294.05 204.075 298.35 199.125 298.35ZM255.115 301V275.15H251.065V291.05C251.065 295.15 248.415 298.25 244.315 298.25C240.665 298.25 238.515 296.3 238.515 292.95V275.15H234.465V293.05C234.465 298.4 237.865 301.6 243.165 301.6C246.915 301.6 249.115 299.95 250.965 297.45H251.065V301H255.115ZM278.942 278.45H282.692V296.15C282.692 299.8 285.092 301.15 288.392 301.15C289.592 301.15 290.692 301 291.642 300.8V297.3H291.492C291.042 297.45 290.142 297.65 289.342 297.65C287.692 297.65 286.742 297.05 286.742 295.25V278.45H291.742V275.15H286.742V267H282.692V275.15H278.942V278.45ZM315.924 301H319.974V275.15H315.924V301ZM315.924 270.25H319.974V265.25H315.924V270.25ZM351.894 301H356.394L365.694 275.15H361.494L356.044 291.55C355.294 293.8 354.344 297 354.344 297H354.244C354.244 297 353.294 293.85 352.544 291.55L347.194 275.15H342.844L351.894 301ZM399.103 301.7C404.953 301.7 409.003 298.55 410.203 293H406.253C405.353 296.5 402.853 298.3 399.103 298.3C393.903 298.3 391.053 294.3 390.753 289.05H410.753C410.753 280.5 406.603 274.5 398.853 274.5C391.503 274.5 386.603 280.6 386.603 288.1C386.603 295.6 391.203 301.7 399.103 301.7ZM398.853 277.7C403.503 277.7 406.153 280.85 406.403 286H390.853C391.453 281.3 394.053 277.7 398.853 277.7ZM460.772 308.35C464.072 308.35 466.722 307.5 466.722 302.7V275.15H462.672V302.5C462.672 304.25 461.772 305 460.022 305C459.572 305 459.122 304.95 458.622 304.85H458.522V308.15C459.172 308.25 459.872 308.35 460.772 308.35ZM462.672 270.25H466.722V265.25H462.672V270.25ZM512.742 301V275.15H508.692V291.05C508.692 295.15 506.042 298.25 501.942 298.25C498.292 298.25 496.142 296.3 496.142 292.95V275.15H492.092V293.05C492.092 298.4 495.492 301.6 500.792 301.6C504.542 301.6 506.742 299.95 508.592 297.45H508.692V301H512.742ZM548.019 301.75C553.969 301.75 558.219 299.1 558.219 293.9C558.219 287.95 553.869 286.8 548.669 285.75C544.219 284.85 541.719 284.3 541.719 281.5C541.719 279.45 543.219 277.8 546.919 277.8C550.769 277.8 552.619 279.3 553.019 282.7H557.169C556.569 277.65 553.419 274.6 547.019 274.6C541.019 274.6 537.719 277.4 537.719 281.7C537.719 287.35 542.269 288.4 547.369 289.45C552.119 290.45 554.119 291.2 554.119 294.1C554.119 296.5 552.369 298.35 548.119 298.35C544.269 298.35 541.269 297.1 540.719 292.6H536.569C536.969 298.4 540.919 301.75 548.019 301.75ZM579.957 278.45H583.707V296.15C583.707 299.8 586.107 301.15 589.407 301.15C590.607 301.15 591.707 301 592.657 300.8V297.3H592.507C592.057 297.45 591.157 297.65 590.357 297.65C588.707 297.65 587.757 297.05 587.757 295.25V278.45H592.757V275.15H587.757V267H583.707V275.15H579.957V278.45ZM616.939 301H620.989V275.15H616.939V301ZM616.939 270.25H620.989V265.25H616.939V270.25ZM657.56 301.7C664.01 301.7 668.06 298.1 668.61 291.9H664.61C664.26 295.9 661.76 298.3 657.56 298.3C652.06 298.3 649.21 293.8 649.21 288.1C649.21 282.4 652.06 277.85 657.56 277.85C661.46 277.85 663.91 280 664.51 283.5H668.61C667.71 278 663.66 274.5 657.56 274.5C649.86 274.5 645.06 280.6 645.06 288.1C645.06 295.6 649.86 301.7 657.56 301.7ZM703.488 301.7C709.338 301.7 713.388 298.55 714.588 293H710.638C709.738 296.5 707.238 298.3 703.488 298.3C698.288 298.3 695.438 294.3 695.138 289.05H715.138C715.138 280.5 710.988 274.5 703.238 274.5C695.888 274.5 690.988 280.6 690.988 288.1C690.988 295.6 695.588 301.7 703.488 301.7ZM703.238 277.7C707.888 277.7 710.538 280.85 710.788 286H695.238C695.838 281.3 698.438 277.7 703.238 277.7Z" fill="black"/>
<path d="M6.8 359.15H2.75V385H6.8V370.65C6.8 365.8 10.3 362.8 14.3 362.8C15.1 362.8 15.5 362.85 16.1 363.05H16.25V359.15C15.75 358.95 15.35 358.85 14.6 358.85C11.15 358.85 8.45 360.95 6.9 363.45H6.8V359.15ZM49.9621 385.7C55.8121 385.7 59.8621 382.55 61.0621 377H57.1121C56.2121 380.5 53.7121 382.3 49.9621 382.3C44.7621 382.3 41.9121 378.3 41.6121 373.05H61.6121C61.6121 364.5 57.4621 358.5 49.7121 358.5C42.3621 358.5 37.4621 364.6 37.4621 372.1C37.4621 379.6 42.0621 385.7 49.9621 385.7ZM49.7121 361.7C54.3621 361.7 57.0121 364.85 57.2621 370H41.7121C42.3121 365.3 44.9121 361.7 49.7121 361.7ZM83.434 362.45H87.184V380.15C87.184 383.8 89.584 385.15 92.884 385.15C94.084 385.15 95.184 385 96.134 384.8V381.3H95.984C95.534 381.45 94.634 381.65 93.834 381.65C92.184 381.65 91.234 381.05 91.234 379.25V362.45H96.234V359.15H91.234V351H87.184V359.15H83.434V362.45ZM124.466 359.15H120.416V385H124.466V370.65C124.466 365.8 127.966 362.8 131.966 362.8C132.766 362.8 133.166 362.85 133.766 363.05H133.916V359.15C133.416 358.95 133.016 358.85 132.266 358.85C128.816 358.85 126.116 360.95 124.566 363.45H124.466V359.15ZM157.555 385H161.605V359.15H157.555V385ZM157.555 354.25H161.605V349.25H157.555V354.25ZM199.425 385.75C206.425 385.75 210.575 380.45 210.575 372.15C210.575 363.55 206.125 358.55 199.575 358.55C195.825 358.55 193.225 360.2 191.275 362.85H191.175V349.25H187.125V385H191.175V381.6H191.275C193.375 384.5 195.925 385.75 199.425 385.75ZM199.125 382.35C193.625 382.35 190.925 378 190.925 372.2C190.925 366.6 193.525 362 199.175 362C204.075 362 206.425 366.4 206.425 372.2C206.425 378.05 204.075 382.35 199.125 382.35ZM255.115 385V359.15H251.065V375.05C251.065 379.15 248.415 382.25 244.315 382.25C240.665 382.25 238.515 380.3 238.515 376.95V359.15H234.465V377.05C234.465 382.4 237.865 385.6 243.165 385.6C246.915 385.6 249.115 383.95 250.965 381.45H251.065V385H255.115ZM278.942 362.45H282.692V380.15C282.692 383.8 285.092 385.15 288.392 385.15C289.592 385.15 290.692 385 291.642 384.8V381.3H291.492C291.042 381.45 290.142 381.65 289.342 381.65C287.692 381.65 286.742 381.05 286.742 379.25V362.45H291.742V359.15H286.742V351H282.692V359.15H278.942V362.45ZM315.924 385H319.974V359.15H315.924V385ZM315.924 354.25H319.974V349.25H315.924V354.25ZM351.894 385H356.394L365.694 359.15H361.494L356.044 375.55C355.294 377.8 354.344 381 354.344 381H354.244C354.244 381 353.294 377.85 352.544 375.55L347.194 359.15H342.844L351.894 385ZM399.103 385.7C404.953 385.7 409.003 382.55 410.203 377H406.253C405.353 380.5 402.853 382.3 399.103 382.3C393.903 382.3 391.053 378.3 390.753 373.05H410.753C410.753 364.5 406.603 358.5 398.853 358.5C391.503 358.5 386.603 364.6 386.603 372.1C386.603 379.6 391.203 385.7 399.103 385.7ZM398.853 361.7C403.503 361.7 406.153 364.85 406.403 370H390.853C391.453 365.3 394.053 361.7 398.853 361.7ZM460.772 392.35C464.072 392.35 466.722 391.5 466.722 386.7V359.15H462.672V386.5C462.672 388.25 461.772 389 460.022 389C459.572 389 459.122 388.95 458.622 388.85H458.522V392.15C459.172 392.25 459.872 392.35 460.772 392.35ZM462.672 354.25H466.722V349.25H462.672V354.25ZM512.742 385V359.15H508.692V375.05C508.692 379.15 506.042 382.25 501.942 382.25C498.292 382.25 496.142 380.3 496.142 376.95V359.15H492.092V377.05C492.092 382.4 495.492 385.6 500.792 385.6C504.542 385.6 506.742 383.95 508.592 381.45H508.692V385H512.742ZM548.019 385.75C553.969 385.75 558.219 383.1 558.219 377.9C558.219 371.95 553.869 370.8 548.669 369.75C544.219 368.85 541.719 368.3 541.719 365.5C541.719 363.45 543.219 361.8 546.919 361.8C550.769 361.8 552.619 363.3 553.019 366.7H557.169C556.569 361.65 553.419 358.6 547.019 358.6C541.019 358.6 537.719 361.4 537.719 365.7C537.719 371.35 542.269 372.4 547.369 373.45C552.119 374.45 554.119 375.2 554.119 378.1C554.119 380.5 552.369 382.35 548.119 382.35C544.269 382.35 541.269 381.1 540.719 376.6H536.569C536.969 382.4 540.919 385.75 548.019 385.75ZM579.957 362.45H583.707V380.15C583.707 383.8 586.107 385.15 589.407 385.15C590.607 385.15 591.707 385 592.657 384.8V381.3H592.507C592.057 381.45 591.157 381.65 590.357 381.65C588.707 381.65 587.757 381.05 587.757 379.25V362.45H592.757V359.15H587.757V351H583.707V359.15H579.957V362.45ZM616.939 385H620.989V359.15H616.939V385ZM616.939 354.25H620.989V349.25H616.939V354.25ZM657.56 385.7C664.01 385.7 668.06 382.1 668.61 375.9H664.61C664.26 379.9 661.76 382.3 657.56 382.3C652.06 382.3 649.21 377.8 649.21 372.1C649.21 366.4 652.06 361.85 657.56 361.85C661.46 361.85 663.91 364 664.51 367.5H668.61C667.71 362 663.66 358.5 657.56 358.5C649.86 358.5 645.06 364.6 645.06 372.1C645.06 379.6 649.86 385.7 657.56 385.7ZM703.488 385.7C709.338 385.7 713.388 382.55 714.588 377H710.638C709.738 380.5 707.238 382.3 703.488 382.3C698.288 382.3 695.438 378.3 695.138 373.05H715.138C715.138 364.5 710.988 358.5 703.238 358.5C695.888 358.5 690.988 364.6 690.988 372.1C690.988 379.6 695.588 385.7 703.488 385.7ZM703.238 361.7C707.888 361.7 710.538 364.85 710.788 370H695.238C695.838 365.3 698.438 361.7 703.238 361.7Z" fill="black"/>
<path d="M6.8 443.15H2.75V469H6.8V454.65C6.8 449.8 10.3 446.8 14.3 446.8C15.1 446.8 15.5 446.85 16.1 447.05H16.25V443.15C15.75 442.95 15.35 442.85 14.6 442.85C11.15 442.85 8.45 444.95 6.9 447.45H6.8V443.15ZM49.9621 469.7C55.8121 469.7 59.8621 466.55 61.0621 461H57.1121C56.2121 464.5 53.7121 466.3 49.9621 466.3C44.7621 466.3 41.9121 462.3 41.6121 457.05H61.6121C61.6121 448.5 57.4621 442.5 49.7121 442.5C42.3621 442.5 37.4621 448.6 37.4621 456.1C37.4621 463.6 42.0621 469.7 49.9621 469.7ZM49.7121 445.7C54.3621 445.7 57.0121 448.85 57.2621 454H41.7121C42.3121 449.3 44.9121 445.7 49.7121 445.7ZM83.434 446.45H87.184V464.15C87.184 467.8 89.584 469.15 92.884 469.15C94.084 469.15 95.184 469 96.134 468.8V465.3H95.984C95.534 465.45 94.634 465.65 93.834 465.65C92.184 465.65 91.234 465.05 91.234 463.25V446.45H96.234V443.15H91.234V435H87.184V443.15H83.434V446.45ZM124.466 443.15H120.416V469H124.466V454.65C124.466 449.8 127.966 446.8 131.966 446.8C132.766 446.8 133.166 446.85 133.766 447.05H133.916V443.15C133.416 442.95 133.016 442.85 132.266 442.85C128.816 442.85 126.116 444.95 124.566 447.45H124.466V443.15ZM157.555 469H161.605V443.15H157.555V469ZM157.555 438.25H161.605V433.25H157.555V438.25ZM199.425 469.75C206.425 469.75 210.575 464.45 210.575 456.15C210.575 447.55 206.125 442.55 199.575 442.55C195.825 442.55 193.225 444.2 191.275 446.85H191.175V433.25H187.125V469H191.175V465.6H191.275C193.375 468.5 195.925 469.75 199.425 469.75ZM199.125 466.35C193.625 466.35 190.925 462 190.925 456.2C190.925 450.6 193.525 446 199.175 446C204.075 446 206.425 450.4 206.425 456.2C206.425 462.05 204.075 466.35 199.125 466.35ZM255.115 469V443.15H251.065V459.05C251.065 463.15 248.415 466.25 244.315 466.25C240.665 466.25 238.515 464.3 238.515 460.95V443.15H234.465V461.05C234.465 466.4 237.865 469.6 243.165 469.6C246.915 469.6 249.115 467.95 250.965 465.45H251.065V469H255.115ZM278.942 446.45H282.692V464.15C282.692 467.8 285.092 469.15 288.392 469.15C289.592 469.15 290.692 469 291.642 468.8V465.3H291.492C291.042 465.45 290.142 465.65 289.342 465.65C287.692 465.65 286.742 465.05 286.742 463.25V446.45H291.742V443.15H286.742V435H282.692V443.15H278.942V446.45ZM315.924 469H319.974V443.15H315.924V469ZM315.924 438.25H319.974V433.25H315.924V438.25ZM351.894 469H356.394L365.694 443.15H361.494L356.044 459.55C355.294 461.8 354.344 465 354.344 465H354.244C354.244 465 353.294 461.85 352.544 459.55L347.194 443.15H342.844L351.894 469ZM399.103 469.7C404.953 469.7 409.003 466.55 410.203 461H406.253C405.353 464.5 402.853 466.3 399.103 466.3C393.903 466.3 391.053 462.3 390.753 457.05H410.753C410.753 448.5 406.603 442.5 398.853 442.5C391.503 442.5 386.603 448.6 386.603 456.1C386.603 463.6 391.203 469.7 399.103 469.7ZM398.853 445.7C403.503 445.7 406.153 448.85 406.403 454H390.853C391.453 449.3 394.053 445.7 398.853 445.7ZM460.772 476.35C464.072 476.35 466.722 475.5 466.722 470.7V443.15H462.672V470.5C462.672 472.25 461.772 473 460.022 473C459.572 473 459.122 472.95 458.622 472.85H458.522V476.15C459.172 476.25 459.872 476.35 460.772 476.35ZM462.672 438.25H466.722V433.25H462.672V438.25ZM512.742 469V443.15H508.692V459.05C508.692 463.15 506.042 466.25 501.942 466.25C498.292 466.25 496.142 464.3 496.142 460.95V443.15H492.092V461.05C492.092 466.4 495.492 469.6 500.792 469.6C504.542 469.6 506.742 467.95 508.592 465.45H508.692V469H512.742ZM548.019 469.75C553.969 469.75 558.219 467.1 558.219 461.9C558.219 455.95 553.869 454.8 548.669 453.75C544.219 452.85 541.719 452.3 541.719 449.5C541.719 447.45 543.219 445.8 546.919 445.8C550.769 445.8 552.619 447.3 553.019 450.7H557.169C556.569 445.65 553.419 442.6 547.019 442.6C541.019 442.6 537.719 445.4 537.719 449.7C537.719 455.35 542.269 456.4 547.369 457.45C552.119 458.45 554.119 459.2 554.119 462.1C554.119 464.5 552.369 466.35 548.119 466.35C544.269 466.35 541.269 465.1 540.719 460.6H536.569C536.969 466.4 540.919 469.75 548.019 469.75ZM579.957 446.45H583.707V464.15C583.707 467.8 586.107 469.15 589.407 469.15C590.607 469.15 591.707 469 592.657 468.8V465.3H592.507C592.057 465.45 591.157 465.65 590.357 465.65C588.707 465.65 587.757 465.05 587.757 463.25V446.45H592.757V443.15H587.757V435H583.707V443.15H579.957V446.45ZM616.939 469H620.989V443.15H616.939V469ZM616.939 438.25H620.989V433.25H616.939V438.25ZM657.56 469.7C664.01 469.7 668.06 466.1 668.61 459.9H664.61C664.26 463.9 661.76 466.3 657.56 466.3C652.06 466.3 649.21 461.8 649.21 456.1C649.21 450.4 652.06 445.85 657.56 445.85C661.46 445.85 663.91 448 664.51 451.5H668.61C667.71 446 663.66 442.5 657.56 442.5C649.86 442.5 645.06 448.6 645.06 456.1C645.06 463.6 649.86 469.7 657.56 469.7ZM703.488 469.7C709.338 469.7 713.388 466.55 714.588 461H710.638C709.738 464.5 707.238 466.3 703.488 466.3C698.288 466.3 695.438 462.3 695.138 457.05H715.138C715.138 448.5 710.988 442.5 703.238 442.5C695.888 442.5 690.988 448.6 690.988 456.1C690.988 463.6 695.588 469.7 703.488 469.7ZM703.238 445.7C707.888 445.7 710.538 448.85 710.788 454H695.238C695.838 449.3 698.438 445.7 703.238 445.7Z" fill="black"/>
<path d="M6.8 527.15H2.75V553H6.8V538.65C6.8 533.8 10.3 530.8 14.3 530.8C15.1 530.8 15.5 530.85 16.1 531.05H16.25V527.15C15.75 526.95 15.35 526.85 14.6 526.85C11.15 526.85 8.45 528.95 6.9 531.45H6.8V527.15ZM49.9621 553.7C55.8121 553.7 59.8621 550.55 61.0621 545H57.1121C56.2121 548.5 53.7121 550.3 49.9621 550.3C44.7621 550.3 41.9121 546.3 41.6121 541.05H61.6121C61.6121 532.5 57.4621 526.5 49.7121 526.5C42.3621 526.5 37.4621 532.6 37.4621 540.1C37.4621 547.6 42.0621 553.7 49.9621 553.7ZM49.7121 529.7C54.3621 529.7 57.0121 532.85 57.2621 538H41.7121C42.3121 533.3 44.9121 529.7 49.7121 529.7ZM83.434 530.45H87.184V548.15C87.184 551.8 89.584 553.15 92.884 553.15C94.084 553.15 95.184 553 96.134 552.8V549.3H95.984C95.534 549.45 94.634 549.65 93.834 549.65C92.184 549.65 91.234 549.05 91.234 547.25V530.45H96.234V527.15H91.234V519H87.184V527.15H83.434V530.45ZM124.466 527.15H120.416V553H124.466V538.65C124.466 533.8 127.966 530.8 131.966 530.8C132.766 530.8 133.166 530.85 133.766 531.05H133.916V527.15C133.416 526.95 133.016 526.85 132.266 526.85C128.816 526.85 126.116 528.95 124.566 531.45H124.466V527.15ZM157.555 553H161.605V527.15H157.555V553ZM157.555 522.25H161.605V517.25H157.555V522.25ZM199.425 553.75C206.425 553.75 210.575 548.45 210.575 540.15C210.575 531.55 206.125 526.55 199.575 526.55C195.825 526.55 193.225 528.2 191.275 530.85H191.175V517.25H187.125V553H191.175V549.6H191.275C193.375 552.5 195.925 553.75 199.425 553.75ZM199.125 550.35C193.625 550.35 190.925 546 190.925 540.2C190.925 534.6 193.525 530 199.175 530C204.075 530 206.425 534.4 206.425 540.2C206.425 546.05 204.075 550.35 199.125 550.35ZM255.115 553V527.15H251.065V543.05C251.065 547.15 248.415 550.25 244.315 550.25C240.665 550.25 238.515 548.3 238.515 544.95V527.15H234.465V545.05C234.465 550.4 237.865 553.6 243.165 553.6C246.915 553.6 249.115 551.95 250.965 549.45H251.065V553H255.115ZM278.942 530.45H282.692V548.15C282.692 551.8 285.092 553.15 288.392 553.15C289.592 553.15 290.692 553 291.642 552.8V549.3H291.492C291.042 549.45 290.142 549.65 289.342 549.65C287.692 549.65 286.742 549.05 286.742 547.25V530.45H291.742V527.15H286.742V519H282.692V527.15H278.942V530.45ZM315.924 553H319.974V527.15H315.924V553ZM315.924 522.25H319.974V517.25H315.924V522.25ZM351.894 553H356.394L365.694 527.15H361.494L356.044 543.55C355.294 545.8 354.344 549 354.344 549H354.244C354.244 549 353.294 545.85 352.544 543.55L347.194 527.15H342.844L351.894 553ZM399.103 553.7C404.953 553.7 409.003 550.55 410.203 545H406.253C405.353 548.5 402.853 550.3 399.103 550.3C393.903 550.3 391.053 546.3 390.753 541.05H410.753C410.753 532.5 406.603 526.5 398.853 526.5C391.503 526.5 386.603 532.6 386.603 540.1C386.603 547.6 391.203 553.7 399.103 553.7ZM398.853 529.7C403.503 529.7 406.153 532.85 406.403 538H390.853C391.453 533.3 394.053 529.7 398.853 529.7ZM460.772 560.35C464.072 560.35 466.722 559.5 466.722 554.7V527.15H462.672V554.5C462.672 556.25 461.772 557 460.022 557C459.572 557 459.122 556.95 458.622 556.85H458.522V560.15C459.172 560.25 459.872 560.35 460.772 560.35ZM462.672 522.25H466.722V517.25H462.672V522.25ZM512.742 553V527.15H508.692V543.05C508.692 547.15 506.042 550.25 501.942 550.25C498.292 550.25 496.142 548.3 496.142 544.95V527.15H492.092V545.05C492.092 550.4 495.492 553.6 500.792 553.6C504.542 553.6 506.742 551.95 508.592 549.45H508.692V553H512.742ZM548.019 553.75C553.969 553.75 558.219 551.1 558.219 545.9C558.219 539.95 553.869 538.8 548.669 537.75C544.219 536.85 541.719 536.3 541.719 533.5C541.719 531.45 543.219 529.8 546.919 529.8C550.769 529.8 552.619 531.3 553.019 534.7H557.169C556.569 529.65 553.419 526.6 547.019 526.6C541.019 526.6 537.719 529.4 537.719 533.7C537.719 539.35 542.269 540.4 547.369 541.45C552.119 542.45 554.119 543.2 554.119 546.1C554.119 548.5 552.369 550.35 548.119 550.35C544.269 550.35 541.269 549.1 540.719 544.6H536.569C536.969 550.4 540.919 553.75 548.019 553.75ZM579.957 530.45H583.707V548.15C583.707 551.8 586.107 553.15 589.407 553.15C590.607 553.15 591.707 553 592.657 552.8V549.3H592.507C592.057 549.45 591.157 549.65 590.357 549.65C588.707 549.65 587.757 549.05 587.757 547.25V530.45H592.757V527.15H587.757V519H583.707V527.15H579.957V530.45ZM616.939 553H620.989V527.15H616.939V553ZM616.939 522.25H620.989V517.25H616.939V522.25ZM657.56 553.7C664.01 553.7 668.06 550.1 668.61 543.9H664.61C664.26 547.9 661.76 550.3 657.56 550.3C652.06 550.3 649.21 545.8 649.21 540.1C649.21 534.4 652.06 529.85 657.56 529.85C661.46 529.85 663.91 532 664.51 535.5H668.61C667.71 530 663.66 526.5 657.56 526.5C649.86 526.5 645.06 532.6 645.06 540.1C645.06 547.6 649.86 553.7 657.56 553.7ZM703.488 553.7C709.338 553.7 713.388 550.55 714.588 545H710.638C709.738 548.5 707.238 550.3 703.488 550.3C698.288 550.3 695.438 546.3 695.138 541.05H715.138C715.138 532.5 710.988 526.5 703.238 526.5C695.888 526.5 690.988 532.6 690.988 540.1C690.988 547.6 695.588 553.7 703.488 553.7ZM703.238 529.7C707.888 529.7 710.538 532.85 710.788 538H695.238C695.838 533.3 698.438 529.7 703.238 529.7Z" fill="black"/>
<path d="M6.8 611.15H2.75V637H6.8V622.65C6.8 617.8 10.3 614.8 14.3 614.8C15.1 614.8 15.5 614.85 16.1 615.05H16.25V611.15C15.75 610.95 15.35 610.85 14.6 610.85C11.15 610.85 8.45 612.95 6.9 615.45H6.8V611.15ZM49.9621 637.7C55.8121 637.7 59.8621 634.55 61.0621 629H57.1121C56.2121 632.5 53.7121 634.3 49.9621 634.3C44.7621 634.3 41.9121 630.3 41.6121 625.05H61.6121C61.6121 616.5 57.4621 610.5 49.7121 610.5C42.3621 610.5 37.4621 616.6 37.4621 624.1C37.4621 631.6 42.0621 637.7 49.9621 637.7ZM49.7121 613.7C54.3621 613.7 57.0121 616.85 57.2621 622H41.7121C42.3121 617.3 44.9121 613.7 49.7121 613.7ZM83.434 614.45H87.184V632.15C87.184 635.8 89.584 637.15 92.884 637.15C94.084 637.15 95.184 637 96.134 636.8V633.3H95.984C95.534 633.45 94.634 633.65 93.834 633.65C92.184 633.65 91.234 633.05 91.234 631.25V614.45H96.234V611.15H91.234V603H87.184V611.15H83.434V614.45ZM124.466 611.15H120.416V637H124.466V622.65C124.466 617.8 127.966 614.8 131.966 614.8C132.766 614.8 133.166 614.85 133.766 615.05H133.916V611.15C133.416 610.95 133.016 610.85 132.266 610.85C128.816 610.85 126.116 612.95 124.566 615.45H124.466V611.15ZM157.555 637H161.605V611.15H157.555V637ZM157.555 606.25H161.605V601.25H157.555V606.25ZM199.425 637.75C206.425 637.75 210.575 632.45 210.575 624.15C210.575 615.55 206.125 610.55 199.575 610.55C195.825 610.55 193.225 612.2 191.275 614.85H191.175V601.25H187.125V637H191.175V633.6H191.275C193.375 636.5 195.925 637.75 199.425 637.75ZM199.125 634.35C193.625 634.35 190.925 630 190.925 624.2C190.925 618.6 193.525 614 199.175 614C204.075 614 206.425 618.4 206.425 624.2C206.425 630.05 204.075 634.35 199.125 634.35ZM255.115 637V611.15H251.065V627.05C251.065 631.15 248.415 634.25 244.315 634.25C240.665 634.25 238.515 632.3 238.515 628.95V611.15H234.465V629.05C234.465 634.4 237.865 637.6 243.165 637.6C246.915 637.6 249.115 635.95 250.965 633.45H251.065V637H255.115ZM278.942 614.45H282.692V632.15C282.692 635.8 285.092 637.15 288.392 637.15C289.592 637.15 290.692 637 291.642 636.8V633.3H291.492C291.042 633.45 290.142 633.65 289.342 633.65C287.692 633.65 286.742 633.05 286.742 631.25V614.45H291.742V611.15H286.742V603H282.692V611.15H278.942V614.45ZM315.924 637H319.974V611.15H315.924V637ZM315.924 606.25H319.974V601.25H315.924V606.25ZM351.894 637H356.394L365.694 611.15H361.494L356.044 627.55C355.294 629.8 354.344 633 354.344 633H354.244C354.244 633 353.294 629.85 352.544 627.55L347.194 611.15H342.844L351.894 637ZM399.103 637.7C404.953 637.7 409.003 634.55 410.203 629H406.253C405.353 632.5 402.853 634.3 399.103 634.3C393.903 634.3 391.053 630.3 390.753 625.05H410.753C410.753 616.5 406.603 610.5 398.853 610.5C391.503 610.5 386.603 616.6 386.603 624.1C386.603 631.6 391.203 637.7 399.103 637.7ZM398.853 613.7C403.503 613.7 406.153 616.85 406.403 622H390.853C391.453 617.3 394.053 613.7 398.853 613.7ZM460.772 644.35C464.072 644.35 466.722 643.5 466.722 638.7V611.15H462.672V638.5C462.672 640.25 461.772 641 460.022 641C459.572 641 459.122 640.95 458.622 640.85H458.522V644.15C459.172 644.25 459.872 644.35 460.772 644.35ZM462.672 606.25H466.722V601.25H462.672V606.25ZM512.742 637V611.15H508.692V627.05C508.692 631.15 506.042 634.25 501.942 634.25C498.292 634.25 496.142 632.3 496.142 628.95V611.15H492.092V629.05C492.092 634.4 495.492 637.6 500.792 637.6C504.542 637.6 506.742 635.95 508.592 633.45H508.692V637H512.742ZM548.019 637.75C553.969 637.75 558.219 635.1 558.219 629.9C558.219 623.95 553.869 622.8 548.669 621.75C544.219 620.85 541.719 620.3 541.719 617.5C541.719 615.45 543.219 613.8 546.919 613.8C550.769 613.8 552.619 615.3 553.019 618.7H557.169C556.569 613.65 553.419 610.6 547.019 610.6C541.019 610.6 537.719 613.4 537.719 617.7C537.719 623.35 542.269 624.4 547.369 625.45C552.119 626.45 554.119 627.2 554.119 630.1C554.119 632.5 552.369 634.35 548.119 634.35C544.269 634.35 541.269 633.1 540.719 628.6H536.569C536.969 634.4 540.919 637.75 548.019 637.75ZM579.957 614.45H583.707V632.15C583.707 635.8 586.107 637.15 589.407 637.15C590.607 637.15 591.707 637 592.657 636.8V633.3H592.507C592.057 633.45 591.157 633.65 590.357 633.65C588.707 633.65 587.757 633.05 587.757 631.25V614.45H592.757V611.15H587.757V603H583.707V611.15H579.957V614.45ZM616.939 637H620.989V611.15H616.939V637ZM616.939 606.25H620.989V601.25H616.939V606.25ZM657.56 637.7C664.01 637.7 668.06 634.1 668.61 627.9H664.61C664.26 631.9 661.76 634.3 657.56 634.3C652.06 634.3 649.21 629.8 649.21 624.1C649.21 618.4 652.06 613.85 657.56 613.85C661.46 613.85 663.91 616 664.51 619.5H668.61C667.71 614 663.66 610.5 657.56 610.5C649.86 610.5 645.06 616.6 645.06 624.1C645.06 631.6 649.86 637.7 657.56 637.7ZM703.488 637.7C709.338 637.7 713.388 634.55 714.588 629H710.638C709.738 632.5 707.238 634.3 703.488 634.3C698.288 634.3 695.438 630.3 695.138 625.05H715.138C715.138 616.5 710.988 610.5 703.238 610.5C695.888 610.5 690.988 616.6 690.988 624.1C690.988 631.6 695.588 637.7 703.488 637.7ZM703.238 613.7C707.888 613.7 710.538 616.85 710.788 622H695.238C695.838 617.3 698.438 613.7 703.238 613.7Z" fill="black"/>
<path d="M6.8 695.15H2.75V721H6.8V706.65C6.8 701.8 10.3 698.8 14.3 698.8C15.1 698.8 15.5 698.85 16.1 699.05H16.25V695.15C15.75 694.95 15.35 694.85 14.6 694.85C11.15 694.85 8.45 696.95 6.9 699.45H6.8V695.15ZM49.9621 721.7C55.8121 721.7 59.8621 718.55 61.0621 713H57.1121C56.2121 716.5 53.7121 718.3 49.9621 718.3C44.7621 718.3 41.9121 714.3 41.6121 709.05H61.6121C61.6121 700.5 57.4621 694.5 49.7121 694.5C42.3621 694.5 37.4621 700.6 37.4621 708.1C37.4621 715.6 42.0621 721.7 49.9621 721.7ZM49.7121 697.7C54.3621 697.7 57.0121 700.85 57.2621 706H41.7121C42.3121 701.3 44.9121 697.7 49.7121 697.7ZM83.434 698.45H87.184V716.15C87.184 719.8 89.584 721.15 92.884 721.15C94.084 721.15 95.184 721 96.134 720.8V717.3H95.984C95.534 717.45 94.634 717.65 93.834 717.65C92.184 717.65 91.234 717.05 91.234 715.25V698.45H96.234V695.15H91.234V687H87.184V695.15H83.434V698.45ZM124.466 695.15H120.416V721H124.466V706.65C124.466 701.8 127.966 698.8 131.966 698.8C132.766 698.8 133.166 698.85 133.766 699.05H133.916V695.15C133.416 694.95 133.016 694.85 132.266 694.85C128.816 694.85 126.116 696.95 124.566 699.45H124.466V695.15ZM157.555 721H161.605V695.15H157.555V721ZM157.555 690.25H161.605V685.25H157.555V690.25ZM199.425 721.75C206.425 721.75 210.575 716.45 210.575 708.15C210.575 699.55 206.125 694.55 199.575 694.55C195.825 694.55 193.225 696.2 191.275 698.85H191.175V685.25H187.125V721H191.175V717.6H191.275C193.375 720.5 195.925 721.75 199.425 721.75ZM199.125 718.35C193.625 718.35 190.925 714 190.925 708.2C190.925 702.6 193.525 698 199.175 698C204.075 698 206.425 702.4 206.425 708.2C206.425 714.05 204.075 718.35 199.125 718.35ZM255.115 721V695.15H251.065V711.05C251.065 715.15 248.415 718.25 244.315 718.25C240.665 718.25 238.515 716.3 238.515 712.95V695.15H234.465V713.05C234.465 718.4 237.865 721.6 243.165 721.6C246.915 721.6 249.115 719.95 250.965 717.45H251.065V721H255.115ZM278.942 698.45H282.692V716.15C282.692 719.8 285.092 721.15 288.392 721.15C289.592 721.15 290.692 721 291.642 720.8V717.3H291.492C291.042 717.45 290.142 717.65 289.342 717.65C287.692 717.65 286.742 717.05 286.742 715.25V698.45H291.742V695.15H286.742V687H282.692V695.15H278.942V698.45ZM315.924 721H319.974V695.15H315.924V721ZM315.924 690.25H319.974V685.25H315.924V690.25ZM351.894 721H356.394L365.694 695.15H361.494L356.044 711.55C355.294 713.8 354.344 717 354.344 717H354.244C354.244 717 353.294 713.85 352.544 711.55L347.194 695.15H342.844L351.894 721ZM399.103 721.7C404.953 721.7 409.003 718.55 410.203 713H406.253C405.353 716.5 402.853 718.3 399.103 718.3C393.903 718.3 391.053 714.3 390.753 709.05H410.753C410.753 700.5 406.603 694.5 398.853 694.5C391.503 694.5 386.603 700.6 386.603 708.1C386.603 715.6 391.203 721.7 399.103 721.7ZM398.853 697.7C403.503 697.7 406.153 700.85 406.403 706H390.853C391.453 701.3 394.053 697.7 398.853 697.7ZM460.772 728.35C464.072 728.35 466.722 727.5 466.722 722.7V695.15H462.672V722.5C462.672 724.25 461.772 725 460.022 725C459.572 725 459.122 724.95 458.622 724.85H458.522V728.15C459.172 728.25 459.872 728.35 460.772 728.35ZM462.672 690.25H466.722V685.25H462.672V690.25ZM512.742 721V695.15H508.692V711.05C508.692 715.15 506.042 718.25 501.942 718.25C498.292 718.25 496.142 716.3 496.142 712.95V695.15H492.092V713.05C492.092 718.4 495.492 721.6 500.792 721.6C504.542 721.6 506.742 719.95 508.592 717.45H508.692V721H512.742ZM548.019 721.75C553.969 721.75 558.219 719.1 558.219 713.9C558.219 707.95 553.869 706.8 548.669 705.75C544.219 704.85 541.719 704.3 541.719 701.5C541.719 699.45 543.219 697.8 546.919 697.8C550.769 697.8 552.619 699.3 553.019 702.7H557.169C556.569 697.65 553.419 694.6 547.019 694.6C541.019 694.6 537.719 697.4 537.719 701.7C537.719 707.35 542.269 708.4 547.369 709.45C552.119 710.45 554.119 711.2 554.119 714.1C554.119 716.5 552.369 718.35 548.119 718.35C544.269 718.35 541.269 717.1 540.719 712.6H536.569C536.969 718.4 540.919 721.75 548.019 721.75ZM579.957 698.45H583.707V716.15C583.707 719.8 586.107 721.15 589.407 721.15C590.607 721.15 591.707 721 592.657 720.8V717.3H592.507C592.057 717.45 591.157 717.65 590.357 717.65C588.707 717.65 587.757 717.05 587.757 715.25V698.45H592.757V695.15H587.757V687H583.707V695.15H579.957V698.45ZM616.939 721H620.989V695.15H616.939V721ZM616.939 690.25H620.989V685.25H616.939V690.25ZM657.56 721.7C664.01 721.7 668.06 718.1 668.61 711.9H664.61C664.26 715.9 661.76 718.3 657.56 718.3C652.06 718.3 649.21 713.8 649.21 708.1C649.21 702.4 652.06 697.85 657.56 697.85C661.46 697.85 663.91 700 664.51 703.5H668.61C667.71 698 663.66 694.5 657.56 694.5C649.86 694.5 645.06 700.6 645.06 708.1C645.06 715.6 649.86 721.7 657.56 721.7ZM703.488 721.7C709.338 721.7 713.388 718.55 714.588 713H710.638C709.738 716.5 707.238 718.3 703.488 718.3C698.288 718.3 695.438 714.3 695.138 709.05H715.138C715.138 700.5 710.988 694.5 703.238 694.5C695.888 694.5 690.988 700.6 690.988 708.1C690.988 715.6 695.588 721.7 703.488 721.7ZM703.238 697.7C707.888 697.7 710.538 700.85 710.788 706H695.238C695.838 701.3 698.438 697.7 703.238 697.7Z" fill="black"/>
<path d="M6.8 779.15H2.75V805H6.8V790.65C6.8 785.8 10.3 782.8 14.3 782.8C15.1 782.8 15.5 782.85 16.1 783.05H16.25V779.15C15.75 778.95 15.35 778.85 14.6 778.85C11.15 778.85 8.45 780.95 6.9 783.45H6.8V779.15ZM49.9621 805.7C55.8121 805.7 59.8621 802.55 61.0621 797H57.1121C56.2121 800.5 53.7121 802.3 49.9621 802.3C44.7621 802.3 41.9121 798.3 41.6121 793.05H61.6121C61.6121 784.5 57.4621 778.5 49.7121 778.5C42.3621 778.5 37.4621 784.6 37.4621 792.1C37.4621 799.6 42.0621 805.7 49.9621 805.7ZM49.7121 781.7C54.3621 781.7 57.0121 784.85 57.2621 790H41.7121C42.3121 785.3 44.9121 781.7 49.7121 781.7ZM83.434 782.45H87.184V800.15C87.184 803.8 89.584 805.15 92.884 805.15C94.084 805.15 95.184 805 96.134 804.8V801.3H95.984C95.534 801.45 94.634 801.65 93.834 801.65C92.184 801.65 91.234 801.05 91.234 799.25V782.45H96.234V779.15H91.234V771H87.184V779.15H83.434V782.45ZM124.466 779.15H120.416V805H124.466V790.65C124.466 785.8 127.966 782.8 131.966 782.8C132.766 782.8 133.166 782.85 133.766 783.05H133.916V779.15C133.416 778.95 133.016 778.85 132.266 778.85C128.816 778.85 126.116 780.95 124.566 783.45H124.466V779.15ZM157.555 805H161.605V779.15H157.555V805ZM157.555 774.25H161.605V769.25H157.555V774.25ZM199.425 805.75C206.425 805.75 210.575 800.45 210.575 792.15C210.575 783.55 206.125 778.55 199.575 778.55C195.825 778.55 193.225 780.2 191.275 782.85H191.175V769.25H187.125V805H191.175V801.6H191.275C193.375 804.5 195.925 805.75 199.425 805.75ZM199.125 802.35C193.625 802.35 190.925 798 190.925 792.2C190.925 786.6 193.525 782 199.175 782C204.075 782 206.425 786.4 206.425 792.2C206.425 798.05 204.075 802.35 199.125 802.35ZM255.115 805V779.15H251.065V795.05C251.065 799.15 248.415 802.25 244.315 802.25C240.665 802.25 238.515 800.3 238.515 796.95V779.15H234.465V797.05C234.465 802.4 237.865 805.6 243.165 805.6C246.915 805.6 249.115 803.95 250.965 801.45H251.065V805H255.115ZM278.942 782.45H282.692V800.15C282.692 803.8 285.092 805.15 288.392 805.15C289.592 805.15 290.692 805 291.642 804.8V801.3H291.492C291.042 801.45 290.142 801.65 289.342 801.65C287.692 801.65 286.742 801.05 286.742 799.25V782.45H291.742V779.15H286.742V771H282.692V779.15H278.942V782.45ZM315.924 805H319.974V779.15H315.924V805ZM315.924 774.25H319.974V769.25H315.924V774.25ZM351.894 805H356.394L365.694 779.15H361.494L356.044 795.55C355.294 797.8 354.344 801 354.344 801H354.244C354.244 801 353.294 797.85 352.544 795.55L347.194 779.15H342.844L351.894 805ZM399.103 805.7C404.953 805.7 409.003 802.55 410.203 797H406.253C405.353 800.5 402.853 802.3 399.103 802.3C393.903 802.3 391.053 798.3 390.753 793.05H410.753C410.753 784.5 406.603 778.5 398.853 778.5C391.503 778.5 386.603 784.6 386.603 792.1C386.603 799.6 391.203 805.7 399.103 805.7ZM398.853 781.7C403.503 781.7 406.153 784.85 406.403 790H390.853C391.453 785.3 394.053 781.7 398.853 781.7ZM460.772 812.35C464.072 812.35 466.722 811.5 466.722 806.7V779.15H462.672V806.5C462.672 808.25 461.772 809 460.022 809C459.572 809 459.122 808.95 458.622 808.85H458.522V812.15C459.172 812.25 459.872 812.35 460.772 812.35ZM462.672 774.25H466.722V769.25H462.672V774.25ZM512.742 805V779.15H508.692V795.05C508.692 799.15 506.042 802.25 501.942 802.25C498.292 802.25 496.142 800.3 496.142 796.95V779.15H492.092V797.05C492.092 802.4 495.492 805.6 500.792 805.6C504.542 805.6 506.742 803.95 508.592 801.45H508.692V805H512.742ZM548.019 805.75C553.969 805.75 558.219 803.1 558.219 797.9C558.219 791.95 553.869 790.8 548.669 789.75C544.219 788.85 541.719 788.3 541.719 785.5C541.719 783.45 543.219 781.8 546.919 781.8C550.769 781.8 552.619 783.3 553.019 786.7H557.169C556.569 781.65 553.419 778.6 547.019 778.6C541.019 778.6 537.719 781.4 537.719 785.7C537.719 791.35 542.269 792.4 547.369 793.45C552.119 794.45 554.119 795.2 554.119 798.1C554.119 800.5 552.369 802.35 548.119 802.35C544.269 802.35 541.269 801.1 540.719 796.6H536.569C536.969 802.4 540.919 805.75 548.019 805.75ZM579.957 782.45H583.707V800.15C583.707 803.8 586.107 805.15 589.407 805.15C590.607 805.15 591.707 805 592.657 804.8V801.3H592.507C592.057 801.45 591.157 801.65 590.357 801.65C588.707 801.65 587.757 801.05 587.757 799.25V782.45H592.757V779.15H587.757V771H583.707V779.15H579.957V782.45ZM616.939 805H620.989V779.15H616.939V805ZM616.939 774.25H620.989V769.25H616.939V774.25ZM657.56 805.7C664.01 805.7 668.06 802.1 668.61 795.9H664.61C664.26 799.9 661.76 802.3 657.56 802.3C652.06 802.3 649.21 797.8 649.21 792.1C649.21 786.4 652.06 781.85 657.56 781.85C661.46 781.85 663.91 784 664.51 787.5H668.61C667.71 782 663.66 778.5 657.56 778.5C649.86 778.5 645.06 784.6 645.06 792.1C645.06 799.6 649.86 805.7 657.56 805.7ZM703.488 805.7C709.338 805.7 713.388 802.55 714.588 797H710.638C709.738 800.5 707.238 802.3 703.488 802.3C698.288 802.3 695.438 798.3 695.138 793.05H715.138C715.138 784.5 710.988 778.5 703.238 778.5C695.888 778.5 690.988 784.6 690.988 792.1C690.988 799.6 695.588 805.7 703.488 805.7ZM703.238 781.7C707.888 781.7 710.538 784.85 710.788 790H695.238C695.838 785.3 698.438 781.7 703.238 781.7Z" fill="black"/>
<path d="M6.8 863.15H2.75V889H6.8V874.65C6.8 869.8 10.3 866.8 14.3 866.8C15.1 866.8 15.5 866.85 16.1 867.05H16.25V863.15C15.75 862.95 15.35 862.85 14.6 862.85C11.15 862.85 8.45 864.95 6.9 867.45H6.8V863.15ZM49.9621 889.7C55.8121 889.7 59.8621 886.55 61.0621 881H57.1121C56.2121 884.5 53.7121 886.3 49.9621 886.3C44.7621 886.3 41.9121 882.3 41.6121 877.05H61.6121C61.6121 868.5 57.4621 862.5 49.7121 862.5C42.3621 862.5 37.4621 868.6 37.4621 876.1C37.4621 883.6 42.0621 889.7 49.9621 889.7ZM49.7121 865.7C54.3621 865.7 57.0121 868.85 57.2621 874H41.7121C42.3121 869.3 44.9121 865.7 49.7121 865.7ZM83.434 866.45H87.184V884.15C87.184 887.8 89.584 889.15 92.884 889.15C94.084 889.15 95.184 889 96.134 888.8V885.3H95.984C95.534 885.45 94.634 885.65 93.834 885.65C92.184 885.65 91.234 885.05 91.234 883.25V866.45H96.234V863.15H91.234V855H87.184V863.15H83.434V866.45ZM124.466 863.15H120.416V889H124.466V874.65C124.466 869.8 127.966 866.8 131.966 866.8C132.766 866.8 133.166 866.85 133.766 867.05H133.916V863.15C133.416 862.95 133.016 862.85 132.266 862.85C128.816 862.85 126.116 864.95 124.566 867.45H124.466V863.15ZM157.555 889H161.605V863.15H157.555V889ZM157.555 858.25H161.605V853.25H157.555V858.25ZM199.425 889.75C206.425 889.75 210.575 884.45 210.575 876.15C210.575 867.55 206.125 862.55 199.575 862.55C195.825 862.55 193.225 864.2 191.275 866.85H191.175V853.25H187.125V889H191.175V885.6H191.275C193.375 888.5 195.925 889.75 199.425 889.75ZM199.125 886.35C193.625 886.35 190.925 882 190.925 876.2C190.925 870.6 193.525 866 199.175 866C204.075 866 206.425 870.4 206.425 876.2C206.425 882.05 204.075 886.35 199.125 886.35ZM255.115 889V863.15H251.065V879.05C251.065 883.15 248.415 886.25 244.315 886.25C240.665 886.25 238.515 884.3 238.515 880.95V863.15H234.465V881.05C234.465 886.4 237.865 889.6 243.165 889.6C246.915 889.6 249.115 887.95 250.965 885.45H251.065V889H255.115ZM278.942 866.45H282.692V884.15C282.692 887.8 285.092 889.15 288.392 889.15C289.592 889.15 290.692 889 291.642 888.8V885.3H291.492C291.042 885.45 290.142 885.65 289.342 885.65C287.692 885.65 286.742 885.05 286.742 883.25V866.45H291.742V863.15H286.742V855H282.692V863.15H278.942V866.45ZM315.924 889H319.974V863.15H315.924V889ZM315.924 858.25H319.974V853.25H315.924V858.25ZM351.894 889H356.394L365.694 863.15H361.494L356.044 879.55C355.294 881.8 354.344 885 354.344 885H354.244C354.244 885 353.294 881.85 352.544 879.55L347.194 863.15H342.844L351.894 889ZM399.103 889.7C404.953 889.7 409.003 886.55 410.203 881H406.253C405.353 884.5 402.853 886.3 399.103 886.3C393.903 886.3 391.053 882.3 390.753 877.05H410.753C410.753 868.5 406.603 862.5 398.853 862.5C391.503 862.5 386.603 868.6 386.603 876.1C386.603 883.6 391.203 889.7 399.103 889.7ZM398.853 865.7C403.503 865.7 406.153 868.85 406.403 874H390.853C391.453 869.3 394.053 865.7 398.853 865.7ZM460.772 896.35C464.072 896.35 466.722 895.5 466.722 890.7V863.15H462.672V890.5C462.672 892.25 461.772 893 460.022 893C459.572 893 459.122 892.95 458.622 892.85H458.522V896.15C459.172 896.25 459.872 896.35 460.772 896.35ZM462.672 858.25H466.722V853.25H462.672V858.25ZM512.742 889V863.15H508.692V879.05C508.692 883.15 506.042 886.25 501.942 886.25C498.292 886.25 496.142 884.3 496.142 880.95V863.15H492.092V881.05C492.092 886.4 495.492 889.6 500.792 889.6C504.542 889.6 506.742 887.95 508.592 885.45H508.692V889H512.742ZM548.019 889.75C553.969 889.75 558.219 887.1 558.219 881.9C558.219 875.95 553.869 874.8 548.669 873.75C544.219 872.85 541.719 872.3 541.719 869.5C541.719 867.45 543.219 865.8 546.919 865.8C550.769 865.8 552.619 867.3 553.019 870.7H557.169C556.569 865.65 553.419 862.6 547.019 862.6C541.019 862.6 537.719 865.4 537.719 869.7C537.719 875.35 542.269 876.4 547.369 877.45C552.119 878.45 554.119 879.2 554.119 882.1C554.119 884.5 552.369 886.35 548.119 886.35C544.269 886.35 541.269 885.1 540.719 880.6H536.569C536.969 886.4 540.919 889.75 548.019 889.75ZM579.957 866.45H583.707V884.15C583.707 887.8 586.107 889.15 589.407 889.15C590.607 889.15 591.707 889 592.657 888.8V885.3H592.507C592.057 885.45 591.157 885.65 590.357 885.65C588.707 885.65 587.757 885.05 587.757 883.25V866.45H592.757V863.15H587.757V855H583.707V863.15H579.957V866.45ZM616.939 889H620.989V863.15H616.939V889ZM616.939 858.25H620.989V853.25H616.939V858.25ZM657.56 889.7C664.01 889.7 668.06 886.1 668.61 879.9H664.61C664.26 883.9 661.76 886.3 657.56 886.3C652.06 886.3 649.21 881.8 649.21 876.1C649.21 870.4 652.06 865.85 657.56 865.85C661.46 865.85 663.91 868 664.51 871.5H668.61C667.71 866 663.66 862.5 657.56 862.5C649.86 862.5 645.06 868.6 645.06 876.1C645.06 883.6 649.86 889.7 657.56 889.7ZM703.488 889.7C709.338 889.7 713.388 886.55 714.588 881H710.638C709.738 884.5 707.238 886.3 703.488 886.3C698.288 886.3 695.438 882.3 695.138 877.05H715.138C715.138 868.5 710.988 862.5 703.238 862.5C695.888 862.5 690.988 868.6 690.988 876.1C690.988 883.6 695.588 889.7 703.488 889.7ZM703.238 865.7C707.888 865.7 710.538 868.85 710.788 874H695.238C695.838 869.3 698.438 865.7 703.238 865.7Z" fill="black"/>
</svg>
